<?xml version="1.0" encoding="UTF-8" standalone="no"?>
<svg xmlns="http://www.w3.org/2000/svg" width="320" height="400" viewBox="0 0 320 400">
  <title>LA_base_v2 — Lôi Thiên Ảnh (semi-real 2D concept)</title>
  <desc>Improved human proportions. Layers: head, torso, arm_front, arm_back, leg_front, leg_back, plus FX groups. No spear; punch basic.</desc>

  <defs>
    <linearGradient id="gradMetal" x1="0" y1="0" x2="1" y2="1">
      <stop offset="0%" stop-color="#8bd1ff"/>
      <stop offset="55%" stop-color="#c7f1ff"/>
      <stop offset="100%" stop-color="#9acfff"/>
    </linearGradient>
    <linearGradient id="gradSteel" x1="0" y1="0" x2="0" y2="1">
      <stop offset="0%" stop-color="#163044"/>
      <stop offset="100%" stop-color="#0f1f2c"/>
    </linearGradient>
    <radialGradient id="gradSkin" cx="50%" cy="40%" r="70%">
      <stop offset="0%" stop-color="#d1e8ff" stop-opacity="1"/>
      <stop offset="75%" stop-color="#cbe7ff" stop-opacity="0.95"/>
      <stop offset="100%" stop-color="#b7daff" stop-opacity="0.9"/>
    </radialGradient>
    <filter id="fxSoftGlow" x="-50%" y="-50%" width="200%" height="200%">
      <feGaussianBlur stdDeviation="3"/>
      <feColorMatrix type="matrix" values="1 0 0 0 0  0 1 0 0 0  0 0 1 0 0  0 0 0 1 0"/>
    </filter>
    <filter id="heatDistort" x="-50%" y="-50%" width="200%" height="200%">
      <feTurbulence type="fractalNoise" baseFrequency="0.006" numOctaves="2" seed="7" result="n"/>
      <feDisplacementMap in="SourceGraphic" in2="n" scale="4" xChannelSelector="R" yChannelSelector="G"/>
    </filter>
    <symbol id="arcSmall" viewBox="0 0 40 40">
      <path d="M6 22 L18 16 L15 24 L30 18 L22 28" fill="none" stroke="#a6ecff" stroke-width="2" stroke-linecap="round" stroke-linejoin="round"/>
    </symbol>
  </defs>

  <style><![CDATA[
    .ol { stroke:#1e3e53; stroke-width:1.3; }
    .ol2 { stroke:#1e3e53; stroke-width:1; }
    .ns { stroke:none; }
    .fx-glow { filter:url(#fxSoftGlow); opacity:0.75; }
    .fx-heat { filter:url(#heatDistort); opacity:0.35; mix-blend-mode:soft-light; }
    .fx-ult  { opacity:0.0; mix-blend-mode:screen; }
    @keyframes breathe { 0%{transform:translateY(0)} 50%{transform:translateY(-1.2px)} 100%{transform:translateY(0)} }
    @keyframes glowPulse { 0%{opacity:0.55} 50%{opacity:0.85} 100%{opacity:0.55} }
    #LA_TORSO, #LA_HEAD { animation:breathe 2.8s ease-in-out infinite; }
    #LA_FX_GLOW { animation:glowPulse 2.5s ease-in-out infinite; }
  ]]></style>

  <!-- heat halo -->
  <g id="LA_FX_HEAT" class="fx-heat" data-pivot="160,200">
    <ellipse cx="160" cy="210" rx="116" ry="156" fill="#8bd1ff" opacity="0.09"/>
  </g>

  <!-- leg back (right/far) -->
  <g id="LA_LEG_BACK" data-pivot="196,336" transform-origin="196px 336px">
    <path class="ol" fill="url(#gradSteel)" d="M182,288 C174,302 174,330 186,344 C194,354 212,356 220,344 C226,334 222,312 214,300 C206,290 192,284 182,288 Z"/>
    <path class="ol2" fill="url(#gradMetal)" d="M190,340 C184,342 182,348 186,354 C196,366 214,364 220,352 C222,346 216,340 206,340 C198,340 194,340 190,340 Z"/>
    <path class="ol" fill="url(#gradSteel)" d="M190,356 C184,368 186,386 190,398 C196,412 216,412 222,402 C226,394 224,382 218,374 C214,368 214,358 216,350 C216,342 206,342 198,344 C194,346 192,350 190,356 Z"/>
    <path class="ol2" fill="#244a63" d="M190,398 L224,398 L220,408 C216,416 194,418 190,408 Z"/>
    <path class="ns" fill="#8bd1ff" opacity="0.2" d="M208,292 C214,308 216,330 214,340 C212,348 208,348 208,340 C208,326 206,306 206,296 Z"/>
  </g>

  <!-- arm back (right/far) -->
  <g id="LA_ARM_BACK" data-pivot="198,170" transform-origin="198px 170px">
    <path class="ol" fill="url(#gradSteel)" d="M186,160 C182,170 184,186 196,192 C208,198 222,192 226,180 C228,170 220,160 208,158 C198,156 190,156 186,160 Z"/>
    <path class="ol" fill="url(#gradSteel)" d="M208,194 C200,200 198,218 204,230 C208,238 220,244 232,238 C244,232 246,216 238,206 C230,198 218,194 208,194 Z"/>
    <path class="ol2" fill="url(#gradMetal)" d="M224,232 C216,234 212,240 214,246 C216,252 226,254 236,252 C244,250 248,244 246,238 C244,234 234,230 224,232 Z"/>
    <path d="M198,166 C206,166 210,172 216,174" fill="none" stroke="#9df0ff" stroke-width="1.2" opacity="0.6"/>
  </g>

  <!-- torso -->
  <g id="LA_TORSO" data-pivot="160,260" transform-origin="160px 260px">
    <path class="ol" fill="url(#gradSteel)" d="M126,264 C132,300 132,324 136,340 C140,356 152,366 160,366 C168,366 180,356 184,340 C188,324 188,300 194,264 C182,270 168,274 160,274 C152,274 140,270 126,264 Z"/>
    <path class="ns" fill="#0f1f2c" opacity="0.6" d="M142,240 C148,268 172,268 178,240 C168,246 152,246 142,240 Z"/>
    <path class="ol" fill="url(#gradMetal)" d="M120,206 C130,188 150,178 160,178 C170,178 190,188 200,206 C206,216 204,232 198,244 C192,254 178,262 160,262 C142,262 128,254 122,244 C116,232 114,216 120,206 Z"/>
    <path class="ol2" fill="#1e3e53" d="M148,176 C152,170 158,166 160,166 C162,166 168,170 172,176 C164,176 156,176 148,176 Z"/>
    <rect x="132" y="258" width="56" height="10" fill="#244a63" class="ol2"/>
    <path d="M132,224 C146,216 158,220 172,216 C184,212 194,212 202,220" fill="none" stroke="#9df0ff" stroke-width="1.4" opacity="0.7"/>
  </g>

  <!-- head -->
  <g id="LA_HEAD" data-pivot="160,104" transform-origin="160px 104px">
    <path class="ol2" fill="url(#gradSkin)" d="M152,168 L168,168 L168,180 C164,182 156,182 152,180 Z"/>
    <path class="ol" fill="url(#gradSkin)" d="M140,140 C140,124 152,110 160,110 C168,110 180,124 180,140 C180,160 170,172 160,172 C150,172 140,160 140,140 Z"/>
    <ellipse cx="138" cy="142" rx="3" ry="6" fill="url(#gradSkin)" class="ol2"/>
    <ellipse cx="182" cy="142" rx="3" ry="6" fill="url(#gradSkin)" class="ol2"/>
    <path d="M148,138 C152,136 156,136 160,138" stroke="#0f1f2c" stroke-width="1.6" fill="none" stroke-linecap="round"/>
    <path d="M164,138 C168,136 172,136 176,138" stroke="#0f1f2c" stroke-width="1.6" fill="none" stroke-linecap="round"/>
    <circle cx="156" cy="139" r="1.4" fill="#8bd1ff" opacity="0.75"/>
    <circle cx="172" cy="139" r="1.4" fill="#8bd1ff" opacity="0.75"/>
    <path d="M160,144 L160,148" stroke="#1e3e53" stroke-width="1.1"/>
    <path d="M150,154 C156,158 170,158 176,152" stroke="#1e3e53" stroke-width="1.4" fill="none" stroke-linecap="round"/>
    <path class="ol" fill="#0b1822" d="M138,132 C142,118 152,110 160,108 C170,108 182,116 184,128 C184,132 184,140 180,142 C176,138 168,134 160,134 C150,134 144,138 138,132 Z"/>
    <path class="ns" fill="#8bd1ff" opacity="0.18" d="M146,118 C154,114 168,114 174,122 C168,124 156,124 146,118 Z"/>
  </g>

  <!-- arm front (left/near) -->
  <g id="LA_ARM_FRONT" data-pivot="120,168" transform-origin="120px 168px">
    <path class="ol" fill="url(#gradSteel)" d="M96,168 C96,186 110,198 124,200 C140,202 154,192 156,178 C158,164 146,154 128,154 C112,154 98,158 96,168 Z"/>
    <path class="ol" fill="url(#gradSteel)" d="M126,200 C110,206 100,224 106,238 C114,254 138,256 152,246 C166,236 168,216 156,206 C146,200 136,198 126,200 Z"/>
    <g id="LA_GAUNTLET_FRONT">
      <path class="ol" fill="url(#gradMetal)" d="M148,242 C134,244 126,254 130,262 C136,274 160,272 168,262 C174,254 168,242 156,240 C154,240 152,240 148,242 Z"/>
      <circle cx="144" cy="254" r="3.4" fill="#c7f1ff" class="ol2"/>
      <circle cx="152" cy="254" r="3.4" fill="#c7f1ff" class="ol2"/>
      <circle cx="160" cy="254" r="3.4" fill="#c7f1ff" class="ol2"/>
      <path d="M138,250 C142,248 146,252 148,254" stroke="#a6ecff" stroke-width="1" fill="none" opacity="0.75"/>
      <path d="M156,248 C160,248 162,252 164,254" stroke="#a6ecff" stroke-width="1" fill="none" opacity="0.75"/>
    </g>
  </g>

  <!-- leg front (left/near) -->
  <g id="LA_LEG_FRONT" data-pivot="148,336" transform-origin="148px 336px">
    <path class="ol" fill="url(#gradSteel)" d="M132,288 C122,300 124,330 140,344 C152,356 174,356 182,340 C188,328 182,306 170,296 C158,286 142,284 132,288 Z"/>
    <path class="ol2" fill="url(#gradMetal)" d="M144,340 C136,342 134,348 138,356 C148,368 168,366 174,354 C176,348 170,342 160,342 C152,342 148,340 144,340 Z"/>
    <path class="ol" fill="url(#gradSteel)" d="M144,358 C138,370 140,388 144,400 C150,412 172,414 178,404 C184,394 180,382 172,374 C168,368 168,358 170,350 C170,342 160,342 152,344 C148,346 146,350 144,358 Z"/>
    <path class="ol2" fill="#244a63" d="M144,400 L178,400 L174,412 C170,420 148,422 144,412 Z"/>
    <path class="ns" fill="#8bd1ff" opacity="0.2" d="M162,292 C168,308 170,330 168,340 C166,348 162,348 162,340 C162,326 160,306 160,296 Z"/>
  </g>

  <!-- FX glow -->
  <g id="LA_FX_GLOW" class="fx-glow" data-pivot="156,256" transform-origin="156px 256px">
    <use href="#arcSmall" x="132" y="228"/>
    <use href="#arcSmall" x="150" y="236" transform="scale(0.9)"/>
    <use href="#arcSmall" x="120" y="246" transform="scale(0.8)"/>
    <path d="M100,164 C112,160 128,164 136,170" stroke="#9df0ff" stroke-width="1.6" fill="none"/>
    <path d="M126,216 C138,210 156,214 172,208" stroke="#a6ecff" stroke-width="1.4" fill="none" opacity="0.85"/>
  </g>

  <!-- ult overlay (off) -->
  <g id="LA_FX_ULT" class="fx-ult" data-pivot="160,200" style="display:none">
    <radialGradient id="ultBurst" cx="50%" cy="70%" r="60%">
      <stop offset="0%" stop-color="#ffd4a8" stop-opacity="0.45"/>
      <stop offset="80%" stop-color="#ff8055" stop-opacity="0.0"/>
    </radialGradient>
    <ellipse cx="160" cy="262" rx="120" ry="92" fill="url(#ultBurst)"/>
  </g>
</svg>
