<svg xmlns="http://www.w3.org/2000/svg" viewBox="0 0 160 200">
  <defs>
    <linearGradient id="leaderA-asc-shield" x1="0" y1="0" x2="0" y2="1">
      <stop offset="0%" stop-color="#8ff2ff"/>
      <stop offset="100%" stop-color="#245d7a"/>
    </linearGradient>
    <radialGradient id="leaderA-asc-glow" cx="50%" cy="35%" r="65%">
      <stop offset="0%" stop-color="#f9feff" stop-opacity="0.92"/>
      <stop offset="100%" stop-color="#8ff2ff" stop-opacity="0"/>
    </radialGradient>
    <linearGradient id="leaderA-asc-sigil" x1="0" y1="0" x2="1" y2="1">
      <stop offset="0%" stop-color="#fff2a6"/>
      <stop offset="100%" stop-color="#ffd776"/>
    </linearGradient>
  </defs>
  <g stroke-linecap="round" stroke-linejoin="round">
    <path d="M80 10 L144 48 L122 156 L80 194 L38 156 L16 48 Z" fill="url(#leaderA-asc-shield)" stroke="#103347" stroke-width="6"/>
    <path d="M80 32 C108 38 128 70 122 110 C116 150 98 170 80 178 C62 170 44 150 38 110 C32 70 52 38 80 32 Z" fill="#e5fbff" fill-opacity="0.25"/>
    <path d="M80 54 L100 86 L88 124 L80 138 L72 124 L60 86 Z" fill="url(#leaderA-asc-sigil)" fill-opacity="0.92"/>
    <circle cx="80" cy="60" r="20" fill="url(#leaderA-asc-glow)"/>
  </g>
</svg>
