<svg xmlns="http://www.w3.org/2000/svg" viewBox="0 0 160 200">
  <defs>
    <linearGradient id="loithien-cloak" x1="0" y1="0" x2="0" y2="1">
      <stop offset="0%" stop-color="#8bd1ff"/>
      <stop offset="100%" stop-color="#163044"/>
    </linearGradient>
    <radialGradient id="loithien-glow" cx="50%" cy="36%" r="60%">
      <stop offset="0%" stop-color="#c7f1ff" stop-opacity="0.85"/>
      <stop offset="100%" stop-color="#8bd1ff" stop-opacity="0"/>
    </radialGradient>
  </defs>
  <g stroke-linecap="round" stroke-linejoin="round">
    <path d="M80 12 C114 20 142 54 148 98 C154 142 132 178 96 190 C64 196 38 180 22 160 C10 138 8 98 16 66 C32 32 54 18 80 12 Z" fill="url(#loithien-cloak)" stroke="#152739" stroke-width="6"/>
    <path d="M80 36 C110 44 132 74 130 108 C128 142 106 170 80 176 C52 172 34 142 34 108 C32 74 50 44 80 36 Z" fill="#c7f1ff" fill-opacity="0.3"/>
    <circle cx="80" cy="74" r="20" fill="url(#loithien-glow)"/>
  </g>
</svg>
