<svg xmlns="http://www.w3.org/2000/svg" viewBox="0 0 160 200" id="loithienanh-default">
  <defs>
   <linearGradient id="LA_grad_skin" x1="0" y1="0" x2="0" y2="1">
      <stop offset="0%" stop-color="#f4fbff"/>
      <stop offset="100%" stop-color="#cbe7ff"/>
    </linearGradient>
    <linearGradient id="LA_grad_metal" x1="0" y1="0" x2="1" y2="1">
      <stop offset="0%" stop-color="#d9f2ff"/>
      <stop offset="100%" stop-color="#163044"/>
    </linearGradient>
    <radialGradient id="LA_grad_glow" cx="50%" cy="40%" r="60%">
      <stop offset="0%" stop-color="#c7f1ff" stop-opacity="0.85"/>
      <stop offset="100%" stop-color="#8bd1ff" stop-opacity="0"/>
    </radialGradient>
    <linearGradient id="LA_grad_overlay" x1="0" y1="0" x2="0" y2="1">
      <stop offset="0%" stop-color="#ff8055" stop-opacity="0.45"/>
      <stop offset="100%" stop-color="#ffd4a8" stop-opacity="0"/>
    </linearGradient>
  </defs>
  <g id="LA_LEG_BACK" data-pivot="92,130">
    <path d="M98 112 C106 140 108 170 108 198 L90 198 C88 170 84 142 78 122 Z" fill="#163044" stroke="#1e3e53" stroke-width="1.6" stroke-linejoin="round" />
    <path d="M94 132 C98 152 100 176 100 194 L92 194 C90 170 86 148 82 134 Z" fill="#c7f1ff" opacity="0.18" />
  </g>
  <g id="LA_CAPE_BACK" data-pivot="86,128">
    <path d="M48 82 C32 112 28 144 34 184 C52 196 76 204 100 198 C116 178 118 152 108 118 C96 94 80 82 62 78 Z" fill="#163044" stroke="#1e3e53" stroke-width="1.6" stroke-linejoin="round" />
    <path d="M58 94 C46 122 46 152 52 176 C72 184 92 182 104 164 C96 130 82 104 58 94 Z" fill="#8bd1ff" opacity="0.25" />
  </g>
  <g id="LA_ARM_BACK" data-pivot="98,76">
    <path d="M102 74 C116 90 122 112 120 134 C114 150 106 162 100 174 L90 170 C96 150 98 128 92 108 Z" fill="#8bd1ff" stroke="#1e3e53" stroke-width="1.6" stroke-linejoin="round" />
    <path d="M102 90 C110 106 112 122 110 138 C106 146 102 154 98 162 L96 160 C100 142 100 122 96 106 Z" fill="#c7f1ff" opacity="0.2" />
  </g>
  <g id="LA_WEAPON_BACK" data-pivot="124,138">
    <path d="M116 24 L124 36 L86 168 L76 164 Z" fill="url(#LA_grad_metal)" stroke="#1e3e53" stroke-width="1.6" stroke-linejoin="round" />
    <path d="M116 24 C122 20 132 16 140 12 L142 22 C134 28 126 34 120 40 Z" fill="#c7f1ff" stroke="#1e3e53" stroke-width="1.2" stroke-linejoin="round" />
  </g>
  <g id="LA_TORSO" data-pivot="86,128">
    <path d="M54 70 C60 56 76 48 92 52 C104 58 112 70 114 88 C112 110 106 130 94 142 C82 150 66 150 56 142 C48 124 46 96 54 70 Z" fill="#8bd1ff" stroke="#1e3e53" stroke-width="1.6" stroke-linejoin="round" />
    <path d="M68 78 C78 70 92 70 100 82 C104 100 100 118 90 132 C80 140 68 138 60 126 C58 106 60 90 68 78 Z" fill="url(#LA_grad_metal)" opacity="0.9" />
    <path d="M62 110 L94 108 L88 132 L66 132 Z" fill="#163044" opacity="0.35" />
  </g>
  <g id="LA_HEAD" data-pivot="84,54">
    <path d="M72 36 C82 28 98 28 108 40 C114 54 112 70 104 80 C94 90 78 88 70 76 C66 62 66 46 72 36 Z" fill="url(#LA_grad_skin)" stroke="#1e3e53" stroke-width="1.4" stroke-linejoin="round" />
    <path d="M78 42 C84 38 94 38 100 46 C102 56 100 64 94 70 C86 72 78 64 78 52 Z" fill="#c7f1ff" opacity="0.18" />
  </g>
  <g id="LA_HAIR_FRONT" data-pivot="84,54">
    <path d="M66 32 C78 18 102 18 114 40 C112 58 104 70 96 76 L86 70 L78 86 C70 84 64 70 64 58 Z" fill="#163044" stroke="#1e3e53" stroke-width="1.6" stroke-linejoin="round" />
    <path d="M88 34 C98 32 108 40 110 54 C104 64 96 70 88 68 C82 60 82 46 88 34 Z" fill="#c7f1ff" opacity="0.22" />
  </g>
  <g id="LA_LEG_FRONT" data-pivot="70,126">
    <path d="M74 118 C84 142 86 170 84 198 L66 198 C64 174 60 146 54 122 Z" fill="#163044" stroke="#1e3e53" stroke-width="1.6" stroke-linejoin="round" />
    <path d="M72 136 C78 156 78 180 78 194 L70 194 C68 170 64 146 60 134 Z" fill="#c7f1ff" opacity="0.2" />
  </g>
  <g id="LA_ARM_FRONT" data-pivot="54,74">
    <path d="M56 70 C44 86 40 110 44 132 C50 146 60 156 70 166 L80 162 C72 144 68 124 72 104 Z" fill="#8bd1ff" stroke="#1e3e53" stroke-width="1.6" stroke-linejoin="round" />
    <path d="M58 88 C52 104 52 120 54 134 C60 142 66 150 72 156 L72 150 C66 134 64 116 68 100 Z" fill="#c7f1ff" opacity="0.24" />
  </g>
  <g id="LA_WEAPON_FRONT" data-pivot="78,128">
    <path d="M40 40 L48 28 L92 162 L82 166 Z" fill="url(#LA_grad_metal)" stroke="#1e3e53" stroke-width="1.6" stroke-linejoin="round" />
    <path d="M40 40 C32 34 22 30 14 26 L16 16 C26 20 36 26 44 32 Z" fill="#c7f1ff" stroke="#1e3e53" stroke-width="1.2" stroke-linejoin="round" />
    <path d="M86 156 L96 152 L98 160 L88 166 Z" fill="#c7f1ff" opacity="0.6" />
  </g>
  <g id="LA_ACC_FRONT" data-pivot="78,120">
    <path d="M60 112 C72 106 88 106 100 112 C94 122 86 130 74 134 C64 132 60 124 60 112 Z" fill="url(#LA_grad_metal)" stroke="#1e3e53" stroke-width="1.6" stroke-linejoin="round" />
    <path d="M70 116 C78 114 88 116 94 120 C88 126 80 128 72 126 Z" fill="#c7f1ff" opacity="0.28" />
  </g>
  <g id="LA_FX_HEAT" data-pivot="86,120" class="fx-heat">
    <path d="M30 60 C20 100 26 140 44 170 C68 190 102 194 132 180 C136 150 124 120 106 96 C84 74 54 62 30 60 Z" fill="#8bd1ff" opacity="0.12" />
  </g>
  <g id="LA_FX_GLOW" data-pivot="86,120" class="fx-glow">
    <path d="M32 40 C26 84 38 128 68 150 C96 166 128 152 140 122 C138 92 122 62 98 44 C76 34 50 34 32 40 Z" fill="url(#LA_grad_glow)" />
  </g>
  <g id="LA_FX_ULT" data-pivot="86,120" class="fx-ult" style="mix-blend-mode:soft-light">
    <path d="M12 24 H148 V192 H12 Z" fill="url(#LA_grad_overlay)" opacity="0" />
    <path d="M24 60 C20 120 28 170 60 190 C96 202 132 188 146 150 C144 116 128 86 102 70 C76 60 46 58 24 60 Z" fill="url(#LA_grad_overlay)" opacity="0.45" />
  </g>
</svg>
