<svg xmlns="http://www.w3.org/2000/svg" viewBox="0 0 160 200">
  <defs>
    <linearGradient id="leaderB-night-wing" x1="0" y1="0" x2="1" y2="1">
      <stop offset="0%" stop-color="#ff79b0"/>
      <stop offset="100%" stop-color="#2b0c2f"/>
    </linearGradient>
    <radialGradient id="leaderB-night-glow" cx="50%" cy="36%" r="65%">
      <stop offset="0%" stop-color="#ffe3ff" stop-opacity="0.95"/>
      <stop offset="100%" stop-color="#ff79b0" stop-opacity="0"/>
    </radialGradient>
    <linearGradient id="leaderB-night-sigil" x1="0" y1="0" x2="1" y2="1">
      <stop offset="0%" stop-color="#ffd6ff"/>
      <stop offset="100%" stop-color="#b05aff"/>
    </linearGradient>
  </defs>
  <g stroke-linecap="round" stroke-linejoin="round">
    <path d="M18 174 C6 120 16 60 58 24 C96 -8 146 6 154 58 C142 118 110 164 62 190 Z" fill="url(#leaderB-night-wing)" stroke="#22071f" stroke-width="6"/>
    <path d="M50 60 C72 42 108 46 128 78 C110 114 88 144 60 162 C42 138 40 102 50 60 Z" fill="#ffd6ff" fill-opacity="0.28"/>
    <path d="M72 92 C88 78 118 86 128 104 C110 138 90 162 68 174 C58 148 60 118 72 92 Z" fill="#ffd6ff" fill-opacity="0.45"/>
    <path d="M86 64 C96 68 104 80 104 90 C104 108 90 128 74 138 C66 120 64 96 86 64 Z" fill="url(#leaderB-night-sigil)"/>
    <circle cx="86" cy="72" r="22" fill="url(#leaderB-night-glow)"/>
  </g>
</svg>